<?xml version="1.0" ?><svg id="Layer_1" style="enable-background:new 0 0 52 52;" version="1.1" viewBox="0 0 52 52" xml:space="preserve" xmlns="http://www.w3.org/2000/svg" xmlns:xlink="http://www.w3.org/1999/xlink"><style type="text/css">
	.st0{fill:#F90606;}
</style><g><path d="M8.4318237,13.2670898h0.4667788h2.1574888v9.1428833c0,0.5500488,0.4500122,1,1,1h2.1413574V26   c0,0.5522461,0.4472656,1,1,1s1-0.4477539,1-1v-2.5900269h2.1386719c0.5499878,0,1-0.4499512,1-1v-9.1428833H32.866394V5.0380859   H8.4318237c-2.2685547,0-4.1142578,1.8457031-4.1142578,4.1142578c0,1.1015625,0.4277344,2.1352539,1.2089844,2.9169922   C6.2999878,12.8305664,7.3595581,13.2670898,8.4318237,13.2670898z"/><path class="st0" d="M46.7061157,2h-9.0999756c-1.5100098,0-2.7399902,1.2299805-2.7399902,2.7299805V49   c0,0.2700195,0.0999756,0.5200195,0.289978,0.710022C35.3461304,49.8900146,35.5961304,50,35.8661499,50h10.8399658   c1.5100098,0,2.7399902-1.2299805,2.7399902-2.7299805V4.7299805C49.446106,3.2299805,48.2161255,2,46.7061157,2z M44.8961182,40   c-0.1799927,0.1799927-0.4400024,0.289978-0.710022,0.289978c-0.2599487,0-0.5199585-0.1099854-0.6999512-0.289978   c-0.1900024-0.1900024-0.3000488-0.4400024-0.3000488-0.710022c0-0.2599487,0.1100464-0.5199585,0.3000488-0.7099609   c0.3699951-0.3699951,1.039978-0.3699951,1.4099731,0.0100098c0.1900024,0.1799927,0.289978,0.4400024,0.289978,0.6999512   C45.1860962,39.5599976,45.0861206,39.8099976,44.8961182,40z M44.8961182,36.1699829   c-0.1900024,0.1799927-0.4400024,0.2900391-0.710022,0.2900391c-0.2599487,0-0.5199585-0.1100464-0.6999512-0.2900391   c-0.1900024-0.1900024-0.3000488-0.4500122-0.3000488-0.7099609c0-0.2600098,0.1100464-0.5200195,0.3000488-0.710022   c0.3699951-0.3699951,1.039978-0.3699951,1.4099731,0c0.1900024,0.1900024,0.289978,0.4400024,0.289978,0.710022   C45.1860962,35.7199707,45.0861206,35.9799805,44.8961182,36.1699829z M44.8961182,32.3300171   c-0.1799927,0.1900024-0.4400024,0.289978-0.710022,0.289978c-0.2599487,0-0.5199585-0.0999756-0.6999512-0.289978   c-0.1900024-0.1799927-0.3000488-0.4400024-0.3000488-0.7000122c0-0.2700195,0.1100464-0.5300293,0.3000488-0.710022   c0.3699951-0.3699951,1.039978-0.3699951,1.4099731,0c0.1900024,0.1799927,0.289978,0.4400024,0.289978,0.710022   C45.1860962,31.8900146,45.0861206,32.1500244,44.8961182,32.3300171z M42.1561279,15.3200073   c-2.1400146,0-3.8800049-1.7399902-3.8800049-3.8800049c0-2.1300049,1.7399902-3.8699951,3.8800049-3.8699951   c2.1300049,0,3.8699951,1.7399902,3.8699951,3.8699951C46.026123,13.5800171,44.2861328,15.3200073,42.1561279,15.3200073z"/><path d="M32.866394,41.6079102H22.5975342c0.3986206-0.512146,0.7716064-1.0515137,1.0997925-1.633667   c5.0456543-1.0714722,5.9458618-5.8129883,5.6905518-8.2515869c-0.0527344-0.5092773-0.4824219-0.8959961-0.9941406-0.8959961   h-3.7851563c-0.0059204,0-0.0107422,0.0032349-0.0166016,0.0033569H5.6561279c-0.5599976,0-1,0.4400024-1,1   c0,3.7290039,1.1560059,7.2181396,3.1433716,9.7778931H3.553894c-0.5527344,0-1,0.4477539-1,1V49c0,0.5522461,0.4472656,1,1,1   h29.4949951c-0.1134033-0.3193359-0.1824951-0.6531372-0.1824951-1V41.6079102z M24.8021851,37.475647   c0.5010376-1.4534912,0.8063965-3.0201416,0.8963013-4.6489868h1.7089233   C27.3378906,34.0834351,26.9013062,36.3272095,24.8021851,37.475647z"/></g></svg>